<?xml version="1.0" encoding="UTF-8"?>
<svg id="Capa_2" data-name="Capa 2" xmlns="http://www.w3.org/2000/svg" viewBox="0 0 57.06 55.65">
  <defs>
    <style>
      .cls-1 {
        fill: #ff7800;
        fill-rule: evenodd;
      }
    </style>
  </defs>
  <g id="Capa_1-2" data-name="Capa 1">
    <path class="cls-1" d="M28.53,0C12.77,0,0,12.77,0,28.53c0,12.62,8.17,23.29,19.51,27.07,1.43.25,1.96-.61,1.96-1.36,0-.68-.04-2.92-.04-5.31-7.17,1.32-9.02-1.75-9.59-3.35-.32-.82-1.71-3.35-2.92-4.03-1-.53-2.42-1.85-.04-1.89,2.25-.04,3.85,2.07,4.39,2.92,2.57,4.31,6.67,3.1,8.31,2.35.25-1.85,1-3.1,1.82-3.82-6.35-.71-12.98-3.17-12.98-14.09,0-3.1,1.11-5.67,2.92-7.67-.29-.71-1.28-3.64.29-7.56,0,0,2.39-.75,7.85,2.92,2.28-.64,4.71-.96,7.13-.96s4.85.32,7.13.96c5.46-3.71,7.85-2.92,7.85-2.92,1.57,3.92.57,6.85.29,7.56,1.82,2,2.92,4.53,2.92,7.67,0,10.95-6.67,13.37-13.02,14.09,1.03.89,1.93,2.6,1.93,5.28,0,3.82-.04,6.88-.04,7.85,0,.75.53,1.64,1.96,1.36,5.66-1.91,10.58-5.55,14.07-10.41,3.49-4.86,5.36-10.68,5.36-16.66C57.06,12.77,44.29,0,28.53,0Z"/>
  </g>
</svg>