<?xml version="1.0" encoding="UTF-8"?>
<svg id="Capa_2" data-name="Capa 2" xmlns="http://www.w3.org/2000/svg" viewBox="0 0 30 30">
  <defs>
    <style>
      .cls-1 {
        fill: #ff7800;
      }
    </style>
  </defs>
  <g id="Capa_1-2" data-name="Capa 1">
    <path class="cls-1" d="M5.88,0C2.65,0,0,2.65,0,5.88v18.24c0,3.23,2.65,5.88,5.88,5.88h18.24c3.23,0,5.88-2.65,5.88-5.88V5.88c0-3.23-2.65-5.88-5.88-5.88H5.88ZM7.36,4.95c1.55,0,2.5,1.02,2.53,2.36,0,1.31-.98,2.35-2.56,2.35h-.03c-1.52,0-2.5-1.05-2.5-2.35s1.01-2.36,2.56-2.36h0ZM20.72,11.2c2.98,0,5.22,1.95,5.22,6.14v7.82h-4.53v-7.29c0-1.83-.66-3.08-2.3-3.08-1.25,0-2,.84-2.33,1.66-.12.29-.15.7-.15,1.11v7.61h-4.53s.06-12.35,0-13.63h4.53v1.93c.6-.93,1.68-2.25,4.08-2.25h0ZM5.06,11.52h4.53v13.63h-4.53v-13.63Z"/>
  </g>
</svg>