<?xml version="1.0" encoding="UTF-8"?>
<svg id="Capa_2" data-name="Capa 2" xmlns="http://www.w3.org/2000/svg" viewBox="0 0 180 180">
  <defs>
    <style>
      .cls-1 {
        fill: #02f9ba;
      }

      .cls-2 {
        fill: #0e0b16;
      }

      .cls-3 {
        fill: #fdfdfe;
      }
    </style>
  </defs>
  <g id="Capa_2-2" data-name="Capa 2">
    <g>
      <rect class="cls-2" width="180" height="180" rx="30" ry="30"/>
      <g id="logo-jr-fondo-claro">
        <path class="cls-1" d="M15.11,18.97c1.62.93,4.12,2.2,7.3,3.2.18.06,4.3,1.33,8.76,1.6,10.64.65,50.74-.78,77.92,0,3.18.09,10.78.78,18.47,6.41,6.8,4.98,10.23,11.31,11.68,14.42-2.18-1.14-4.62-2.25-7.3-3.2-8.46-3.02-16.15-3.49-21.91-3.2h-36.51v94.54c-.17,2.29-1.36,15.75-11.68,24.03-9.18,7.36-24.18,9.52-33.59,0-8.64-8.75-7.48-22.22-7.3-24.03.73,2.09,3.41,8.96,10.22,12.82,1.35.76,10.87,5.94,18.99,0,5.73-4.19,7.04-11.2,7.3-12.82V38.2h-10.22c-3.5.13-13.98.02-23.37-8.01-4.45-3.8-7.17-8.12-8.76-11.22Z"/>
        <path class="cls-3" d="M79.37,92.68h18.99c15.49-1.71,26.87-13.86,27.74-27.24.8-12.15-7.36-20.96-8.76-22.43,2.81.08,6.31.47,10.22,1.6,5.75,1.66,10.17,4.28,13.14,6.41.38,1.45,5.63,22.51-7.3,38.46-8.73,10.76-20.3,12.47-23.37,12.82,16.41,19.97,32.82,39.94,49.23,59.9h-18.73c-1.52-.36-3.51-1-5.67-2.22-1.85-1.04-3.3-2.2-4.38-3.2-17.04-21.36-34.08-42.73-51.11-64.09Z"/>
      </g>
    </g>
  </g>
</svg>