<?xml version="1.0" encoding="UTF-8"?>
<svg id="Capa_2" data-name="Capa 2" xmlns="http://www.w3.org/2000/svg" viewBox="0 0 180 180">
  <defs>
    <style>
      .cls-1 {
        fill: gray;
      }

      .cls-2 {
        fill: #ff7800;
      }
    </style>
  </defs>
  <g id="Capa_2-2" data-name="Capa 2">
    <g id="logo-jr-fondo-claro">
      <path class="cls-2" d="M0,0c2.03,1.16,5.14,2.75,9.12,4,.23.07,5.36,1.66,10.94,2,13.28.81,63.36-.98,97.3,0,3.97.11,13.46.98,23.06,8,8.49,6.22,12.78,14.12,14.59,18.01-2.73-1.43-5.77-2.8-9.12-4-10.56-3.78-20.16-4.35-27.35-4h-45.59v118.04c-.21,2.86-1.7,19.67-14.59,30.01-11.46,9.19-30.2,11.89-41.94,0-10.79-10.92-9.35-27.74-9.12-30.01.91,2.61,4.26,11.19,12.76,16.01,1.68.95,13.57,7.41,23.71,0,7.16-5.23,8.79-13.98,9.12-16.01V24.01h-12.76c-4.37.17-17.45.03-29.18-10C5.39,9.25,1.99,3.87,0,0Z"/>
      <path class="cls-1" d="M80.24,92.03h23.71c19.34-2.13,33.55-17.3,34.64-34.01.99-15.17-9.18-26.17-10.94-28.01,3.51.1,7.88.59,12.76,2,7.18,2.07,12.7,5.35,16.41,8,.48,1.8,7.03,28.11-9.12,48.02-10.9,13.44-25.35,15.57-29.18,16.01,20.49,24.93,40.98,49.87,61.47,74.8h-23.38c-1.9-.45-4.39-1.25-7.09-2.77-2.31-1.3-4.13-2.75-5.47-4-21.27-26.68-42.55-53.35-63.82-80.03Z"/>
    </g>
  </g>
</svg>