<?xml version="1.0" encoding="UTF-8"?>
<svg id="Capa_2" data-name="Capa 2" xmlns="http://www.w3.org/2000/svg" viewBox="0 0 45 33.76">
  <defs>
    <style>
      .cls-1 {
        fill: #ff7800;
      }
    </style>
  </defs>
  <g id="Capa_1-2" data-name="Capa 1">
    <path class="cls-1" d="M42.75.01c-.19-.02-.38-.02-.58,0H2.8c-.25,0-.5.04-.75.11l20.32,20.24L42.75.01Z"/>
    <path class="cls-1" d="M44.83,1.97l-20.48,20.39c-.53.52-1.24.82-1.98.82s-1.46-.29-1.98-.82L.1,2.12c-.06.23-.1.47-.1.7v28.13c0,.75.3,1.46.82,1.99.53.53,1.24.82,1.99.82h39.38c.75,0,1.46-.3,1.99-.82.53-.53.82-1.24.82-1.99V2.83c-.01-.29-.07-.58-.17-.86ZM4.74,30.95h-1.95v-2.01l10.22-10.14,1.98,1.98-10.25,10.17ZM42.16,30.95h-1.97l-10.25-10.17,1.98-1.98,10.22,10.14v2.01Z"/>
  </g>
</svg>