<?xml version="1.0" encoding="UTF-8"?>
<svg id="Capa_2" data-name="Capa 2" xmlns="http://www.w3.org/2000/svg" viewBox="0 0 70 70">
  <defs>
    <style>
      .cls-1 {
        fill: #fc4a1a;
      }

      .cls-2 {
        fill: #fdfdfe;
      }
    </style>
  </defs>
  <g id="Capa_1-2" data-name="Capa 1">
    <circle class="cls-1" cx="35" cy="35" r="35"/>
    <path class="cls-2" d="M15.95,15.98c.53-.53,1.25-.83,2.01-.83s1.47.3,2.01.83l15.02,15.03,15.02-15.03c.26-.27.57-.49.92-.64.35-.15.72-.23,1.1-.23.38,0,.75.07,1.1.21.35.14.67.35.93.62.27.27.48.58.62.93.14.35.21.72.21,1.1,0,.38-.08.75-.23,1.1-.15.35-.36.66-.64.92l-15.02,15.03,15.02,15.03c.52.54.8,1.25.8,2,0,.74-.3,1.46-.83,1.98-.53.53-1.24.83-1.98.83-.74,0-1.46-.28-2-.8l-15.02-15.03-15.02,15.03c-.54.52-1.25.8-2,.8-.74,0-1.46-.31-1.98-.83-.53-.53-.82-1.24-.83-1.98,0-.74.28-1.46.8-2l15.02-15.03-15.02-15.03c-.53-.53-.83-1.25-.83-2.01s.3-1.48.83-2.01Z"/>
  </g>
</svg>